<svg width="167" height="27" viewBox="0 0 167 27" fill="none" xmlns="http://www.w3.org/2000/svg">
<path d="M23.7793 10.1808H28.1206C29.1414 10.1808 29.9942 9.34932 29.9942 8.32602V2.6467C29.9942 1.63619 29.1543 0.791992 28.1206 0.791992H22.3838C21.3631 0.791992 20.5103 1.6234 20.5103 2.6467V7.13644C20.5103 8.14695 19.6704 8.99115 18.6368 8.99115H14.2954C13.2746 8.99115 12.4219 9.8226 12.4219 10.8459V16.5252C12.4219 17.5357 13.2617 18.38 14.2954 18.38H18.6368C19.6575 18.38 20.5103 19.2114 20.5103 20.2347V24.3535C20.5103 25.364 21.3501 26.2082 22.3838 26.2082H28.1206C29.1414 26.2082 29.9942 25.3768 29.9942 24.3535V18.6741C29.9942 17.6636 29.1543 16.8194 28.1206 16.8194H23.7793C22.7585 16.8194 21.9057 15.988 21.9057 14.9647V12.0355C21.9703 11.025 22.7585 10.1808 23.7793 10.1808Z" fill="#03003A"/>
<path d="M7.89941 0.856445H2.16257C1.14183 0.856445 0.289062 1.68789 0.289062 2.71119V8.39051C0.289062 9.40102 1.12891 10.2452 2.16257 10.2452H7.89941C8.92015 10.2452 9.77293 9.41381 9.77293 8.39051V2.64721C9.77293 1.70066 8.93307 0.856445 7.89941 0.856445Z" fill="#03003A"/>
<path d="M7.89941 16.7559H2.16257C1.14183 16.7559 0.289062 17.5873 0.289062 18.6106V24.2899C0.289062 25.3004 1.12891 26.1446 2.16257 26.1446H7.89941C8.92015 26.1446 9.77293 25.3132 9.77293 24.2899V18.6106C9.77293 17.6001 8.93307 16.7559 7.89941 16.7559Z" fill="#03003A"/>
<path d="M52.9119 18.2393H51.6456V25.5943H46.9941V0.791992H51.6456V15.438L52.731 14.9647L56.8398 7.91673H61.9693L57.6796 14.6705L55.8707 16.0392L57.8605 17.4079L62.6929 25.6582H57.3825L52.9119 18.2393Z" fill="#03003A"/>
<path d="M63.3008 16.7423C63.3008 13.7491 64.0244 11.4212 65.5361 9.80945C66.9832 8.19776 69.1022 7.35352 71.751 7.35352C73.1981 7.35352 74.4127 7.59656 75.498 8.00588C76.5188 8.47916 77.4361 9.08035 78.0951 9.92457C78.7541 10.756 79.2967 11.7154 79.6714 12.8538C80.0332 13.9922 80.2141 15.3097 80.2141 16.6784C80.2141 19.6715 79.4905 21.9995 78.0434 23.6112C76.5963 25.2229 74.4773 26.0671 71.8285 26.0671C70.3814 26.0671 69.1668 25.8241 68.0815 25.4148C67.0607 24.9927 66.1434 24.3403 65.4198 23.4961C64.6962 22.6646 64.2182 21.7053 63.8435 20.5669C63.4817 19.4413 63.3008 18.1237 63.3008 16.7423ZM68.1332 16.7423C68.1332 17.5226 68.1978 18.2389 68.3787 18.8912C68.4949 19.5436 68.7404 20.1448 69.0376 20.6308C69.3348 21.1041 69.6966 21.5262 70.1876 21.7692C70.6656 22.0634 71.2083 22.1914 71.8802 22.1914C73.0818 22.1914 73.9992 21.7693 74.5936 20.8739C75.2008 19.9785 75.498 18.597 75.498 16.7551C75.498 15.1434 75.2008 13.8259 74.6582 12.8154C74.1155 11.8049 73.211 11.3188 71.8802 11.3188C70.7302 11.3188 69.8258 11.7409 69.2185 12.5724C68.4303 13.4038 68.1332 14.8364 68.1332 16.7423Z" fill="#03003A"/>
<path d="M94.3365 25.5947V15.5536C94.3365 14.121 94.1556 13.0977 93.7292 12.4453C93.3028 11.793 92.5793 11.486 91.6102 11.486C90.7057 11.486 89.9822 11.729 89.3749 12.2662C88.7676 12.8035 88.3542 13.4047 88.0441 14.1849V25.6587H83.3926V7.96839H87.075L87.6177 10.2964H87.734C88.2766 9.51614 89.0002 8.86377 89.9047 8.32654C90.8091 7.78931 91.9591 7.49512 93.4062 7.49512C94.3106 7.49512 95.0988 7.61024 95.7578 7.85327C96.4167 8.0963 97.024 8.45445 97.515 9.04285C97.9931 9.58008 98.3549 10.2964 98.6003 11.2557C98.8458 12.2151 98.9621 13.3535 98.9621 14.7222V25.7227H94.3106V25.5947H94.3365Z" fill="#03003A"/>
<path d="M113.846 25.5947V15.5536C113.846 14.121 113.665 13.0977 113.239 12.4453C112.813 11.793 112.089 11.486 111.12 11.486C110.216 11.486 109.492 11.729 108.885 12.2662C108.277 12.8035 107.864 13.4047 107.554 14.1849V25.6587H102.902V7.96839H106.585L107.127 10.2964H107.244C107.786 9.51614 108.51 8.86377 109.414 8.32654C110.319 7.78931 111.469 7.49512 112.916 7.49512C113.82 7.49512 114.609 7.61024 115.268 7.85327C115.927 8.0963 116.534 8.45445 117.025 9.04285C117.503 9.58008 117.865 10.2964 118.11 11.2557C118.356 12.2151 118.472 13.3535 118.472 14.7222V25.7227H113.82V25.5947H113.846Z" fill="#03003A"/>
<path d="M136.664 24.0977C135.94 24.6349 134.971 25.1082 133.77 25.5303C132.568 25.9524 131.237 26.1315 129.842 26.1315C126.947 26.1315 124.828 25.3001 123.498 23.6244C122.167 21.9487 121.508 19.6847 121.508 16.7555C121.508 13.6472 122.231 11.3192 123.743 9.75868C125.255 8.19815 127.361 7.43066 130.087 7.43066C130.992 7.43066 131.896 7.54578 132.749 7.78882C133.589 8.03185 134.377 8.39 135.049 8.9784C135.708 9.51563 136.25 10.232 136.677 11.1913C137.103 12.0867 137.284 13.2891 137.284 14.5938C137.284 15.0671 137.284 15.6043 137.219 16.2055C137.155 16.7427 137.103 17.3439 136.974 17.9963H126.289C126.353 19.4928 126.767 20.6312 127.438 21.3476C128.162 22.1278 129.247 22.486 130.824 22.486C131.793 22.486 132.697 22.3709 133.421 22.0639C134.209 21.7697 134.803 21.4627 135.178 21.1685L136.664 24.0977ZM130.023 11.0634C128.821 11.0634 127.904 11.4215 127.361 12.1378C126.754 12.8541 126.456 13.8135 126.34 15.0031H132.981C133.098 13.7496 132.865 12.7263 132.374 12.0739C131.832 11.4215 131.108 11.0634 130.023 11.0634Z" fill="#03003A"/>
<path d="M153.034 24.5199C152.31 25.0571 151.458 25.4153 150.437 25.7094C149.416 26.0036 148.382 26.1315 147.297 26.1315C145.85 26.1315 144.635 25.8885 143.679 25.4792C142.71 25.0571 141.87 24.4048 141.263 23.5605C140.656 22.7291 140.178 21.7697 139.932 20.6313C139.635 19.4929 139.506 18.1754 139.506 16.8067C139.506 13.8136 140.165 11.4856 141.56 9.87387C142.943 8.26217 144.881 7.41797 147.478 7.41797C148.809 7.41797 149.83 7.53307 150.618 7.71214C151.406 7.95518 152.129 8.18541 152.788 8.54357L151.703 12.3042C151.16 12.0612 150.618 11.8309 150.075 11.703C149.532 11.5751 148.925 11.46 148.202 11.46C146.935 11.46 145.902 11.8821 145.243 12.7135C144.584 13.545 144.222 14.8625 144.222 16.7172C144.222 17.4975 144.287 18.1498 144.467 18.8149C144.648 19.4801 144.894 20.0045 145.191 20.4906C145.553 20.9639 145.979 21.322 146.522 21.629C147.065 21.9232 147.672 22.0511 148.395 22.0511C149.184 22.0511 149.842 21.936 150.385 21.757C150.928 21.5779 151.406 21.3348 151.832 21.0406L153.034 24.5199Z" fill="#03003A"/>
<path d="M153.991 7.90415H156.472V4.55285L161.124 3.23535V7.90415H165.465V11.7927H161.124V18.6105C161.124 19.864 161.24 20.7082 161.485 21.2455C161.731 21.7827 162.209 22.0257 162.868 22.0257C163.346 22.0257 163.772 21.9618 164.07 21.9106C164.431 21.7955 164.793 21.6676 165.22 21.4885L166.059 25.0189C165.401 25.3131 164.677 25.5561 163.824 25.7992C162.984 26.0422 162.067 26.0933 161.227 26.0933C159.599 26.0933 158.385 25.6712 157.609 24.8398C156.821 24.0084 156.459 22.6269 156.459 20.721V11.8183H153.979V7.90415H153.991Z" fill="#03003A"/>
</svg>
